<svg xmlns="http://www.w3.org/2000/svg" width="500" height="32" viewBox="0 0 500 32">
  <g id="Group_15669" data-name="Group 15669" transform="translate(-551 -132)">
	<g id="Group_2463" data-name="Group 2463" transform="translate(509.077 116.775)">
  	<path id="Path_3712" data-name="Path 3712" d="M141.321,20.467a2.621,2.621,0,1,0-2.623-2.621,2.622,2.622,0,0,0,2.623,2.621Zm-2.233-2.621a2.231,2.231,0,1,1,2.233,2.233,2.24,2.24,0,0,1-2.233-2.233Zm1.236,1.315h.5V18.048h.592l.434,1.114h.556l-.512-1.193a.661.661,0,0,0,.478-.68c0-.8-.6-.891-1.125-.891h-.927v2.764Zm.5-2.286h.558c.3,0,.469.124.469.369s-.189.357-.425.357h-.6v-.726Z" transform="translate(-15.334 0)" fill="#007cc3"/>
  	<path id="Path_3713" data-name="Path 3713" d="M41.923,19.146V16.02h3.1V41.8h-3.1V19.146Z" transform="translate(0 -0.126)" fill="#007cc3"/>
  	<path id="Path_3714" data-name="Path 3714" d="M77.405,32.391c.08,4.684,3,8.432,6.516,8.37s6.309-3.912,6.227-8.6-3-8.432-6.519-8.37-6.3,3.914-6.224,8.6Zm25.677-5.663c.08.178-.112-.266-.112-.266l.112.266ZM105.2,46.122c.141-.242.34-.612.576-1.075l-.576,1.075Zm.182-21.009c.037.1.08.211.13.327l1.044,2.555-1.173-2.882Zm-13,12.864c1.916,1.74,3.646,2.64,5.85,2.64,2.259.017,4.268-1.088,4.268-3.213,0-1.776-1.576-2.814-4.386-4-2.38-1.033-4.156-1.753-5.08-3.243a11.811,11.811,0,0,1,.172,2c0,5.754-4.172,10.417-9.32,10.417s-9.326-4.663-9.326-10.417a10.833,10.833,0,0,1,3.849-8.434H72.1V41.78H69.3V38.812c0-.052,0-.105,0-.159V23.728H66.831V21.849h2.507c.322-3.789,2.674-5.932,5.923-5.932a9.891,9.891,0,0,1,3.932.528v2.57c-.007.192-.007.307-.007.307-.029,0-.1,0-.1,0a5.516,5.516,0,0,0-4.354-1.63c-1.863,0-3.094,1.511-2.664,4.16H82.559a8.46,8.46,0,0,1,1.329-.1,9.308,9.308,0,0,1,8.442,6c-.013-.2-.019-.4-.019-.615,0-3.7,3.584-5.271,7.3-5.264.141,0,.279,0,.418,0a18.615,18.615,0,0,1,4.315.706l1.032,2.54,1.173,2.882,3.155,7.7.372,1.234.412-1.234,3.991-9.876c.736-2.722,3.652-3.9,6.87-3.891a11.533,11.533,0,0,1,4.2.684v2.988c-1.749-1.268-3-2-4.976-2-1.741,0-3.832.767-3.832,3.328-.034,1.925,1.122,2.276,4.51,3.957,2.786,1.208,5.358,2.545,5.372,5.633,0,5.153-5.083,6.046-7.55,6.055a8.776,8.776,0,0,1-5.356-1.48v-3.4l.178.147c2.008,1.873,3.786,2.845,6.076,2.845,2.259.016,4.268-1.087,4.268-3.214,0-1.772-1.574-2.81-4.384-4-2.689-1.163-4.452-1.933-5.17-3.859-1.1,2.669-6.19,15.076-7.392,17.729h-2.75l.651-1.213.576-1.075.017-.035c.69-1.356,1.693-3.483,2.584-5.52l-5.293-12.765-.3-.675a3.414,3.414,0,0,0-1.923-2.21,6.246,6.246,0,0,0-2.023-.314c-1.741,0-3.966.77-3.966,3.33-.034,1.925,1.256,2.277,4.644,3.958,2.786,1.208,5.357,2.542,5.37,5.632,0,5.155-5.079,6.047-7.55,6.054a9.521,9.521,0,0,1-4.95-1.184V37.977Z" transform="translate(-3.947 -0.11)" fill="#007cc3"/>
  	<path id="Path_3715" data-name="Path 3715" d="M51.975,23.145,52.01,25.4,52,25.552h.031a.983.983,0,0,1,.131-.233c1.139-1.224,2.574-2.435,5.987-2.435a5.53,5.53,0,0,1,5.467,4.522l0,12.351v3.126h-2.8V39.2l0-10.514a3.964,3.964,0,0,0-4.251-3.752c-1.947,0-4.442,1.75-4.524,3.521V42.886h-2.8V23.145h2.724Z" transform="translate(-1.161 -1.214)" fill="#007cc3"/>
	</g>
	<line id="Line_7" data-name="Line 7" y2="25" transform="translate(640 134)" fill="none" stroke="#007cc3" stroke-width="1"/>
	<text id="watchtower" transform="translate(645 135)" fill="#007cc3" font-size="20" font-family="myriad-pro-condensed, Arial, sans-serif" font-weight="600"><tspan x="0" y="23">BizOlympians</tspan></text>
  </g>
</svg>
